<?xml version="1.0" standalone="no"?>
<!DOCTYPE svg PUBLIC "-//W3C//DTD SVG 20010904//EN"
 "http://www.w3.org/TR/2001/REC-SVG-20010904/DTD/svg10.dtd">
<svg version="1.0" xmlns="http://www.w3.org/2000/svg"
 width="920.000000pt" height="920.000000pt" viewBox="0 0 920.000000 920.000000"
 preserveAspectRatio="xMidYMid meet">
<metadata>
Created by potrace 1.11, written by Peter Selinger 2001-2013
</metadata>
<g transform="translate(0.000000,920.000000) scale(0.100000,-0.100000)"
fill="#000000" stroke="none">
<path d="M5080 6488 c-167 -348 -347 -723 -400 -833 -271 -562 -246 -504 -224
-524 50 -48 588 -431 595 -424 5 5 189 381 409 838 220 456 403 831 405 834 4
4 107 -203 225 -454 159 -337 583 -1222 590 -1228 7 -8 609 421 610 435 0 6
-586 1230 -835 1743 -48 99 -93 195 -101 213 l-14 32 -478 0 -478 0 -304 -632z"/>
<path d="M3160 6084 c-137 -37 -270 -122 -358 -227 -59 -71 -119 -197 -138
-287 -21 -98 -14 -240 16 -334 18 -57 19 -71 8 -81 -11 -11 -1283 -940 -1430
-1044 l-48 -34 -59 42 c-130 91 -257 127 -419 118 -206 -11 -376 -99 -497
-259 -292 -385 -97 -939 373 -1059 240 -61 511 28 672 222 148 178 196 431
121 643 l-19 55 356 260 c197 143 532 387 747 543 l389 284 78 -52 c48 -32
110 -62 165 -80 76 -25 103 -29 203 -29 100 0 127 4 203 29 55 18 117 48 165
80 l78 52 740 -539 741 -540 -25 -76 c-19 -60 -25 -98 -25 -181 -2 -129 12
-188 70 -309 82 -172 243 -304 429 -351 302 -77 615 62 763 340 74 138 94 331
51 487 l-21 78 23 19 c13 10 344 252 736 538 l712 519 45 -31 c201 -138 454
-157 670 -50 237 117 378 341 378 600 0 260 -145 491 -378 605 -106 51 -189
68 -320 63 -183 -8 -312 -65 -445 -198 -184 -184 -245 -457 -155 -696 l24 -64
-511 -372 c-282 -205 -611 -445 -732 -534 l-221 -161 -38 33 c-50 42 -156 98
-232 120 -83 25 -277 25 -359 0 -76 -23 -160 -65 -218 -110 l-46 -34 -114 82
c-144 104 -865 630 -1150 838 -120 88 -218 163 -218 167 0 4 9 34 21 67 29 82
36 236 15 334 -29 141 -118 285 -234 382 -58 48 -187 113 -267 133 -75 19
-242 19 -315 -1z"/>
<path d="M4036 4317 c-13 -28 -63 -133 -111 -232 -48 -99 -137 -283 -197 -410
-165 -343 -217 -453 -423 -880 -103 -214 -223 -463 -266 -552 l-78 -163 418 0
417 0 23 48 c13 26 139 295 281 597 142 303 328 694 414 869 86 175 155 322
154 327 -2 4 -88 70 -193 147 -104 76 -241 175 -302 220 l-112 82 -25 -53z"/>
<path d="M7358 4132 c-164 -119 -297 -222 -298 -228 0 -6 80 -175 178 -375 98
-200 292 -608 432 -906 l253 -543 418 0 418 0 -58 123 c-32 67 -114 237 -181
377 -129 269 -199 415 -297 620 -33 69 -149 310 -258 535 -109 226 -219 456
-246 513 -27 56 -52 102 -56 101 -4 0 -142 -98 -305 -217z"/>
</g>
</svg>
