<svg version="1" xmlns="http://www.w3.org/2000/svg" width="493.333" height="493.333" viewBox="0 0 370.000000 370.000000"><path d="M58.9 46.1C36.2 49.4 15.8 66.6 7.9 89c-2 5.5-2.3 8.5-2.4 20 0 11.6.3 14.5 2.4 20.8 6.9 21.2 25.9 37.7 48.1 41.8 9.8 1.9 22.3 1.4 31-1.2 19-5.6 35.3-21.2 42.1-40.4 2-5.6 2.4-8.4 2.3-20.5 0-12.6-.2-14.7-2.6-20.7-3.9-10.2-8.5-17.4-16.5-25.4-14-14.2-33-20.3-53.4-17.3zM289.5 48.4c-19.1 3.7-33.4 13.6-43.3 29.8-5.9 9.8-9.9 25.8-8.7 34.9.3 1.9 1.2 9 2.1 15.9 2.3 17.2 2.3 35.8.1 43.2-2.3 7.7-5.6 11.2-14 15.2-9.4 4.5-17.4 6.8-38.7 11-22.8 4.6-29.3 7.6-40.6 19.1-20.3 20.4-24.8 47.6-12.2 73.4 6.9 14.2 20.2 25.8 36.6 31.9 8.9 3.3 23.5 4.1 34.2 1.8 27.1-5.7 47.6-29 49.6-56.6.4-5-.1-12.4-1.5-22.2-2.3-16.1-2.7-34.8-1-42.7 3-14 14.9-20.4 51.6-27.6 14.5-2.8 19.3-4.2 25.8-7.4 13.4-6.7 23.9-17.7 30.4-32.3 14.9-32.9-3.1-72.8-38.4-85-10-3.4-22-4.3-32-2.4zM114.3 170.1c-4.5 2.2-9.5 7.7-11.3 12.3-1.6 4.3-1.2 13.7.9 18.1 3.8 8.2 11.1 12.5 21.1 12.5 20.9 0 30.3-25.2 14.8-39.7-5.9-5.5-17.8-7-25.5-3.2z"/></svg>